REM DIRINDEX 1\2,1\4,1\3\5,1\3\6,1\3\7
REM DIRNAME folder01,folder02,folder03,folder04,folder05,folder06,folder07
TITLE ""
FILE "CD3Track64.mp3" MP3
  TRACK 01 AUDIO
    TITLE "0:"
    INDEX 01 00:00:00
  TRACK 02 AUDIO
    TITLE "4:cjc081_3449"
    INDEX 01 00:00:25
  TRACK 03 AUDIO
    TITLE "0:"
    INDEX 01 00:04:38
  TRACK 04 AUDIO
    TITLE "5:cjc081_3450"
    INDEX 01 00:05:10
  TRACK 05 AUDIO
    TITLE "0:"
    INDEX 01 00:06:37
  TRACK 06 AUDIO
    TITLE "6:cjc081_3451"
    INDEX 01 00:07:13
  TRACK 07 AUDIO
    TITLE "0:"
    INDEX 01 00:08:48
  TRACK 08 AUDIO
    TITLE "5:cjc081_3452"
    INDEX 01 00:09:18
  TRACK 09 AUDIO
    TITLE "0:"
    INDEX 01 00:10:29
  TRACK 10 AUDIO
    TITLE "6:cjc081_3453"
    INDEX 01 00:11:09
  TRACK 11 AUDIO
    TITLE "0:"
    INDEX 01 00:13:18
  TRACK 12 AUDIO
    TITLE "5:cjc081_3454"
    INDEX 01 00:13:61
  TRACK 13 AUDIO
    TITLE "0:"
    INDEX 01 00:14:66
  TRACK 14 AUDIO
    TITLE "6:cjc081_3455"
    INDEX 01 00:15:36
  TRACK 15 AUDIO
    TITLE "0:"
    INDEX 01 00:17:16
  TRACK 16 AUDIO
    TITLE "5:cjc081_3456"
    INDEX 01 00:17:61
  TRACK 17 AUDIO
    TITLE "0:"
    INDEX 01 00:18:72
  TRACK 18 AUDIO
    TITLE "6:cjc081_3457"
    INDEX 01 00:19:44
  TRACK 19 AUDIO
    TITLE "0:"
    INDEX 01 00:20:51
  TRACK 20 AUDIO
    TITLE "5:cjc081_3458"
    INDEX 01 00:21:21
  TRACK 21 AUDIO
    TITLE "0:"
    INDEX 01 00:22:38
  TRACK 22 AUDIO
    TITLE "6:cjc081_3459"
    INDEX 01 00:23:06
  TRACK 23 AUDIO
    TITLE "0:"
    INDEX 01 00:25:09
  TRACK 24 AUDIO
    TITLE "5:cjc081_3460"
    INDEX 01 00:25:54
  TRACK 25 AUDIO
    TITLE "0:"
    INDEX 01 00:27:00
  TRACK 26 AUDIO
    TITLE "6:cjc081_3461"
    INDEX 01 00:27:43
  TRACK 27 AUDIO
    TITLE "0:"
    INDEX 01 00:28:49
  TRACK 28 AUDIO
    TITLE "5:cjc081_3462"
    INDEX 01 00:29:19
  TRACK 29 AUDIO
    TITLE "0:"
    INDEX 01 00:30:48
  TRACK 30 AUDIO
    TITLE "6:cjc081_3463"
    INDEX 01 00:31:16
  TRACK 31 AUDIO
    TITLE "0:"
    INDEX 01 00:32:37
  TRACK 32 AUDIO
    TITLE "5:cjc081_3464"
    INDEX 01 00:33:01
  TRACK 33 AUDIO
    TITLE "0:"
    INDEX 01 00:34:34
  TRACK 34 AUDIO
    TITLE "6:cjc081_3465"
    INDEX 01 00:35:06
  TRACK 35 AUDIO
    TITLE "0:"
    INDEX 01 00:39:19
  TRACK 36 AUDIO
    TITLE "5:cjc081_3466"
    INDEX 01 00:39:64
  TRACK 37 AUDIO
    TITLE "0:"
    INDEX 01 00:41:12
  TRACK 38 AUDIO
    TITLE "6:cjc081_3467"
    INDEX 01 00:41:61
  TRACK 39 AUDIO
    TITLE "0:"
    INDEX 01 00:43:05
  TRACK 40 AUDIO
    TITLE "5:cjc081_3468"
    INDEX 01 00:43:50
  TRACK 41 AUDIO
    TITLE "0:"
    INDEX 01 00:45:10
  TRACK 42 AUDIO
    TITLE "6:cjc081_3469"
    INDEX 01 00:45:59
  TRACK 43 AUDIO
    TITLE "0:"
    INDEX 01 00:47:52
  TRACK 44 AUDIO
    TITLE "5:cjc081_3470"
    INDEX 01 00:48:24
  TRACK 45 AUDIO
    TITLE "0:"
    INDEX 01 00:49:45
  TRACK 46 AUDIO
    TITLE "6:cjc081_3471"
    INDEX 01 00:50:19
  TRACK 47 AUDIO
    TITLE "0:"
    INDEX 01 00:53:25
  TRACK 48 AUDIO
    TITLE "5:cjc081_3472"
    INDEX 01 00:53:68
  TRACK 49 AUDIO
    TITLE "0:"
    INDEX 01 00:55:28
  TRACK 50 AUDIO
    TITLE "6:cjc081_3473"
    INDEX 01 00:56:02
  TRACK 51 AUDIO
    TITLE "0:"
    INDEX 01 00:58:46
  TRACK 52 AUDIO
    TITLE "5:cjc081_3474"
    INDEX 01 00:59:14
  TRACK 53 AUDIO
    TITLE "0:"
    INDEX 01 01:00:25
  TRACK 54 AUDIO
    TITLE "6:cjc081_3475"
    INDEX 01 01:00:66
  TRACK 55 AUDIO
    TITLE "0:"
    INDEX 01 01:04:66
  TRACK 56 AUDIO
    TITLE "5:cjc081_3476"
    INDEX 01 01:05:34
  TRACK 57 AUDIO
    TITLE "0:"
    INDEX 01 01:06:57
  TRACK 58 AUDIO
    TITLE "6:cjc081_3477"
    INDEX 01 01:07:43
  TRACK 59 AUDIO
    TITLE "0:"
    INDEX 01 01:10:28
  TRACK 60 AUDIO
    TITLE "5:cjc081_3478"
    INDEX 01 01:11:00
  TRACK 61 AUDIO
    TITLE "0:"
    INDEX 01 01:12:15
  TRACK 62 AUDIO
    TITLE "6:cjc081_3479"
    INDEX 01 01:12:58
  TRACK 63 AUDIO
    TITLE "0:"
    INDEX 01 01:14:68
  TRACK 64 AUDIO
    TITLE "5:cjc081_3480"
    INDEX 01 01:15:39
  TRACK 65 AUDIO
    TITLE "0:"
    INDEX 01 01:16:60
  TRACK 66 AUDIO
    TITLE "6:cjc081_3481"
    INDEX 01 01:17:28
  TRACK 67 AUDIO
    TITLE "0:"
    INDEX 01 01:19:13
  TRACK 68 AUDIO
    TITLE "5:cjc081_3482"
    INDEX 01 01:19:56
  TRACK 69 AUDIO
    TITLE "0:"
    INDEX 01 01:21:04
  TRACK 70 AUDIO
    TITLE "6:cjc081_3483"
    INDEX 01 01:21:51
  TRACK 71 AUDIO
    TITLE "0:"
    INDEX 01 01:22:46
  TRACK 72 AUDIO
    TITLE "5:cjc081_3484"
    INDEX 01 01:23:16
  TRACK 73 AUDIO
    TITLE "0:"
    INDEX 01 01:24:37
  TRACK 74 AUDIO
    TITLE "6:cjc081_3485"
    INDEX 01 01:25:06
  TRACK 75 AUDIO
    TITLE "0:"
    INDEX 01 01:27:65
  TRACK 76 AUDIO
    TITLE "5:cjc081_3486"
    INDEX 01 01:28:33
  TRACK 77 AUDIO
    TITLE "0:"
    INDEX 01 01:29:50
  TRACK 78 AUDIO
    TITLE "6:cjc081_3487"
    INDEX 01 01:30:20
  TRACK 79 AUDIO
    TITLE "0:"
    INDEX 01 01:31:61
  TRACK 80 AUDIO
    TITLE "5:cjc081_3488"
    INDEX 01 01:32:29
  TRACK 81 AUDIO
    TITLE "0:"
    INDEX 01 01:33:48
  TRACK 82 AUDIO
    TITLE "6:cjc081_3489"
    INDEX 01 01:34:20
  TRACK 83 AUDIO
    TITLE "0:"
    INDEX 01 01:35:49
  TRACK 84 AUDIO
    TITLE "5:cjc081_3490"
    INDEX 01 01:36:15
  TRACK 85 AUDIO
    TITLE "0:"
    INDEX 01 01:37:36
  TRACK 86 AUDIO
    TITLE "6:cjc081_3491"
    INDEX 01 01:38:06
  TRACK 87 AUDIO
    TITLE "0:"
    INDEX 01 01:39:64
  TRACK 88 AUDIO
    TITLE "5:cjc081_3492"
    INDEX 01 01:40:36
  TRACK 89 AUDIO
    TITLE "0:"
    INDEX 01 01:42:37
  TRACK 90 AUDIO
    TITLE "6:cjc081_3493"
    INDEX 01 01:43:07
  TRACK 91 AUDIO
    TITLE "0:"
    INDEX 01 01:46:18
  TRACK 92 AUDIO
    TITLE "5:cjc081_3494"
    INDEX 01 01:46:66
  TRACK 93 AUDIO
    TITLE "0:"
    INDEX 01 01:48:20
  TRACK 94 AUDIO
    TITLE "6:cjc081_3495"
    INDEX 01 01:48:63
  TRACK 95 AUDIO
    TITLE "0:"
    INDEX 01 01:51:42
  TRACK 96 AUDIO
    TITLE "7:cjc081_3496"
    INDEX 01 01:53:06
  TRACK 97 AUDIO
    TITLE "0:"
    INDEX 01 02:03:43
  TRACK 98 AUDIO
    TITLE "4:cjc081_3497"
    INDEX 01 02:06:14
  TRACK 99 AUDIO
    TITLE "0:"
    INDEX 01 02:09:13
